<svg width="28" height="28" viewBox="0 0 28 28" fill="none" xmlns="http://www.w3.org/2000/svg">
<path d="M23.334 14.3198C23.334 14.7628 23.0048 15.1289 22.5777 15.1868L22.459 15.1948L4.95898 15.1948C4.47573 15.1948 4.08398 14.8031 4.08398 14.3198C4.08398 13.8768 4.41316 13.5108 4.84025 13.4528L4.95898 13.4448L22.459 13.4448C22.9422 13.4448 23.334 13.8366 23.334 14.3198Z" fill="#335A6F"/>
<path d="M12.634 20.7281C12.9764 21.0691 12.9776 21.6231 12.6367 21.9656C12.3267 22.2769 11.8406 22.3062 11.4975 22.0527L11.3992 21.9682L4.34088 14.9402C4.02864 14.6293 4.00024 14.1415 4.25568 13.7984L4.34083 13.7002L11.3992 6.67102C11.7416 6.33002 12.2956 6.33116 12.6366 6.67358C12.9466 6.98487 12.9738 7.47103 12.719 7.81305L12.634 7.91101L6.19867 14.3205L12.634 20.7281Z" fill="#335A6F"/>
</svg>
