<svg width="20" height="20" viewBox="0 0 20 20" fill="none" xmlns="http://www.w3.org/2000/svg">
<path d="M18.7509 10.6193L12.7506 16.7433C12.2148 17.2901 11.2862 16.9073 11.2862 16.1236V12.6242H6.42884C5.95382 12.6242 5.57166 12.2341 5.57166 11.7493V8.2499C5.57166 7.76509 5.95382 7.37505 6.42884 7.37505H11.2862V3.87563C11.2862 3.09555 12.2113 2.70916 12.7506 3.25594L18.7509 9.37992C19.083 9.72258 19.083 10.2766 18.7509 10.6193ZM7.85748 16.561V15.1029C7.85748 14.8623 7.66462 14.6655 7.42889 14.6655H4.42874C3.79657 14.6655 3.28583 14.1442 3.28583 13.499V6.50019C3.28583 5.85499 3.79657 5.33372 4.42874 5.33372H7.42889C7.66462 5.33372 7.85748 5.13688 7.85748 4.89629V3.4382C7.85748 3.19762 7.66462 3.00078 7.42889 3.00078H4.42874C2.53579 3.00078 1 4.56822 1 6.50019V13.499C1 15.431 2.53579 16.9985 4.42874 16.9985H7.42889C7.66462 16.9985 7.85748 16.8016 7.85748 16.561Z" fill="#727682"/>
</svg>
