<svg width="11" height="12" viewBox="0 0 11 12" fill="none" xmlns="http://www.w3.org/2000/svg">
<path fill-rule="evenodd" clip-rule="evenodd" d="M5.80126 0.343218C5.64193 0.161418 5.35899 0.161406 5.19965 0.343193L0.581746 5.61138C0.355103 5.86994 0.538714 6.27505 0.882544 6.27505L3.26699 6.27505C3.4879 6.27505 3.66699 6.45414 3.66699 6.67505L3.66699 11.1C3.66699 11.3209 3.84607 11.5 4.06699 11.5L6.93396 11.5C7.15488 11.5 7.33396 11.3209 7.33396 11.1L7.33396 6.67505C7.33396 6.45414 7.51305 6.27505 7.73396 6.27505L10.1176 6.27505C10.4614 6.27505 10.645 5.86997 10.4184 5.61141L5.80126 0.343218Z" fill="white"/>
</svg>
